<?xml version="1.0" encoding="UTF-8" standalone="no"?>
<!-- Created with Inkscape (http://www.inkscape.org/) -->

<svg
   width="181.44092mm"
   height="187.81711mm"
   viewBox="0 0 181.44092 187.81711"
   version="1.1"
   id="svg1"
   xml:space="preserve"
   sodipodi:docname="icon.svg"
   inkscape:export-filename="icon.png"
   inkscape:export-xdpi="96"
   inkscape:export-ydpi="96"
   inkscape:version="1.3.2 (091e20e, 2023-11-25, custom)"
   xmlns:inkscape="http://www.inkscape.org/namespaces/inkscape"
   xmlns:sodipodi="http://sodipodi.sourceforge.net/DTD/sodipodi-0.dtd"
   xmlns="http://www.w3.org/2000/svg"
   xmlns:svg="http://www.w3.org/2000/svg"><sodipodi:namedview
     id="namedview1"
     pagecolor="#ffffff"
     bordercolor="#000000"
     borderopacity="0.25"
     inkscape:showpageshadow="2"
     inkscape:pageopacity="0.0"
     inkscape:pagecheckerboard="0"
     inkscape:deskcolor="#d1d1d1"
     inkscape:document-units="mm"
     inkscape:zoom="0.36391344"
     inkscape:cx="321.50503"
     inkscape:cy="424.55151"
     inkscape:window-width="1920"
     inkscape:window-height="1094"
     inkscape:window-x="-11"
     inkscape:window-y="-11"
     inkscape:window-maximized="1"
     inkscape:current-layer="layer1" /><defs
     id="defs1" /><g
     inkscape:label="Layer 1"
     inkscape:groupmode="layer"
     id="layer1"
     transform="translate(353.70224,-1.0282046)"><rect
       style="fill:#efd0ef;fill-opacity:1;stroke-width:0.276713"
       id="rect23"
       width="181.19522"
       height="187.64726"
       x="-353.70224"
       y="1.0282046" /><path
       id="rect23-2"
       style="fill:#ff79ff;fill-opacity:0.414313;stroke-width:0.276713"
       d="m -191.75987,61.178178 -34.95911,15.937012 -32.38872,-13.366626 -26.21907,1.542541 -33.41656,21.591964 44.72698,42.156601 -19.60139,11.51196 -9.70225,-7.91321 -5.65547,7.19749 8.81394,4.55838 -6.24355,3.66696 51.34002,40.78407 h 82.80373 V 75.217114 Z" /><path
       style="fill:#000000"
       d="m -296.81416,151.95994 c -6.29946,-1.12612 -11.6257,-4.57956 -13.75699,-8.9198 -0.9698,-1.97496 -1.17358,-5.12901 -0.46853,-7.25174 0.95933,-2.88827 4.38279,-5.26539 6.21704,-4.31687 1.10115,0.56943 1.12981,1.0682 0.1362,2.3699 -1.13416,1.48583 -1.39865,2.5842 -0.83094,3.45064 0.54189,0.82702 1.39116,1.03131 3.41012,0.82029 1.84645,-0.19299 4.34703,-1.27181 6.36579,-2.74636 0.74615,-0.54499 3.64715,-3.14981 6.44669,-5.78846 4.94049,-4.65659 8.6152,-7.51435 11.044,-8.58872 l 1.18229,-0.52298 1.66057,1.68042 c 3.25814,3.29707 6.59307,4.52096 12.3762,4.54194 3.03218,0.011 3.87069,-0.0808 5.54957,-0.60752 3.09103,-0.96977 4.48601,-1.80395 6.54056,-3.91116 l 1.90367,-1.95247 2.26775,1.30493 c 3.04494,1.75214 5.06258,3.39016 9.90915,8.04474 4.71825,4.53135 6.35471,5.84747 9.13628,7.34783 3.00217,1.61935 5.99517,1.77998 6.91817,0.37129 0.54592,-0.83317 0.23883,-1.81019 -1.07161,-3.4094 -1.05228,-1.28418 -1.11383,-1.53555 -0.5211,-2.12828 0.58627,-0.58627 2.37259,-0.52206 3.72785,0.13401 3.59975,1.74261 4.98073,7.28952 2.85892,11.48322 -0.77096,1.52377 -2.8356,3.76276 -4.57035,4.9563 -6.15173,4.2325 -16.10831,5.11616 -24.81582,2.20244 -6.19109,-2.07166 -12.04786,-5.93944 -16.14737,-10.66362 -0.85014,-0.97968 -1.65263,-1.85763 -1.7833,-1.95098 -0.13068,-0.0934 -0.81067,0.51889 -1.51111,1.36055 -5.06152,6.08203 -11.26322,9.93495 -19.42564,12.06853 -2.22368,0.58125 -3.34237,0.70554 -7.01145,0.77901 -2.4011,0.0481 -4.98257,-0.0229 -5.73661,-0.15768 z m -5.64048,-56.499208 c -4.20235,-0.46966 -6.89753,-1.285 -10.70147,-3.23737 -4.22326,-2.16759 -8.8594,-7.16498 -11.45951,-12.35243 -1.14808,-2.29054 -2.00596,-4.83315 -2.29113,-6.790564 l -0.17982,-1.234319 -3.05217,-0.0886 -3.05217,-0.0886 -0.77144,-0.86407 -0.77145,-0.86407 v -4.096867 c 0,-3.770823 0.0429,-4.139822 0.53973,-4.6366 0.87359,-0.873592 1.70077,-1.047768 4.97598,-1.047768 h 3.10001 l 0.36796,-1.25677 c 0.59298,-2.025379 2.55751,-5.591924 4.33077,-7.862394 2.90421,-3.718535 6.89371,-6.73256 11.2918,-8.530827 3.70562,-1.515139 5.24823,-1.785793 10.18646,-1.787239 4.07742,-0.0012 4.73791,0.06542 7.06517,0.71254 7.73932,2.152008 14.87826,8.375598 18.07856,15.760533 0.49195,1.135228 0.97518,2.568835 1.07384,3.185793 0.0987,0.616959 0.25271,1.086519 0.34235,1.043466 0.0896,-0.04305 0.91981,-0.472489 1.84481,-0.954302 2.46433,-1.283621 5.17645,-1.899036 8.34852,-1.894389 3.27225,0.0048 5.39045,0.480535 7.89612,1.773441 1.05451,0.544116 2.02277,0.991884 2.15169,0.995038 0.12892,0.0032 0.39933,-0.649108 0.6009,-1.449473 0.4709,-1.869728 2.12885,-5.344573 3.54519,-7.430226 1.46989,-2.164501 4.42877,-5.252647 6.58076,-6.868258 6.77358,-5.085267 16.6442,-6.430042 25.00112,-3.406156 7.11419,2.574215 13.8648,9.119871 16.69405,16.187199 l 0.71339,1.782024 h 2.76313 c 3.01093,0 3.86923,0.263987 4.83015,1.485604 0.50239,0.638679 0.55253,1.049202 0.55253,4.523555 v 3.821129 l -0.77339,0.773398 c -0.64034,0.640338 -0.99312,0.773721 -2.05052,0.775278 -0.70242,0.001 -2.0829,0.07798 -3.06774,0.170988 -1.54047,0.145483 -1.80565,0.246864 -1.89828,0.725723 -0.86081,4.449799 -2.69819,8.888079 -4.88739,11.805719 -4.74743,6.32712 -11.32373,10.11606 -19.31187,11.12655 -5.77957,0.73112 -12.90114,-0.97518 -17.77815,-4.25957 -2.42593,-1.63372 -5.70423,-5.02805 -7.56866,-7.83653 -2.14839,-3.23623 -3.09051,-5.70585 -4.22207,-11.06752 -0.19623,-0.929816 -0.41387,-1.163881 -1.86642,-2.007306 -2.32001,-1.347113 -4.07607,-1.867029 -6.84926,-2.027857 -3.36521,-0.195161 -5.57576,0.241889 -8.49788,1.680131 -2.31533,1.139583 -2.44706,1.249998 -2.59112,2.171811 -1.66784,10.672551 -8.09208,18.488101 -18.12058,22.044971 -3.02926,1.07441 -8.18776,1.72206 -11.1125,1.39518 z m -13.16249,-32.853858 c 0.2273,-0.254661 0.54047,-0.941101 0.69595,-1.525422 0.57146,-2.147732 3.25951,-5.513605 5.60558,-7.01907 1.92455,-1.234979 4.48985,-2.091624 6.82263,-2.278309 1.22503,-0.09804 2.20531,-0.320634 2.48573,-0.564449 0.70991,-0.617236 0.58498,-1.77283 -0.26458,-2.447316 -0.65849,-0.522783 -0.95383,-0.565775 -3.10886,-0.452545 -5.73641,0.301404 -10.79716,3.607893 -13.86754,9.060493 -1.42963,2.538831 -1.71447,4.262836 -0.84754,5.12976 0.6796,0.679604 1.9154,0.727895 2.47863,0.09686 z m 73.46829,-0.234119 c 0.3016,-0.383427 0.54837,-0.84368 0.54837,-1.022784 0,-0.179105 0.42011,-1.165394 0.93357,-2.191753 2.14298,-4.283556 7.54025,-7.443414 12.74361,-7.460812 1.11693,-0.0037 1.45114,-0.114636 1.78594,-0.592632 0.55254,-0.788859 0.5188,-1.321332 -0.13649,-2.154405 -0.50833,-0.646231 -0.69845,-0.69714 -2.60351,-0.69714 -6.29367,0 -12.48365,3.817725 -15.26857,9.417032 -1.22566,2.464281 -1.39494,3.708683 -0.63554,4.67203 0.76251,0.9673 1.88548,0.980295 2.63262,0.03046 z"
       id="path21" /><path
       style="fill:#efd0ef;stroke-width:0.363524;fill-opacity:1"
       d="m -267.13205,126.60066 c -2.83171,-0.55724 -5.47367,-2.04507 -7.8471,-4.41905 -1.89317,-1.89365 -2.35884,-2.60895 -2.74383,-4.21473 -0.26145,-1.09056 -0.36105,-2.5967 -0.22836,-3.4535 0.12942,-0.8357 1.79494,-7.40856 3.70114,-14.606353 1.9062,-7.197797 3.79364,-14.329871 4.1943,-15.849053 0.40067,-1.519184 1.03802,-3.271139 1.41634,-3.893232 1.37574,-2.262235 5.60712,-3.526443 8.19045,-2.44706 1.63481,0.683067 2.93103,1.798074 3.60879,3.104277 0.39685,0.764812 3.26692,10.904934 8.2314,29.082001 1.72664,6.32196 1.2909,8.78626 -2.20765,12.48548 -2.10107,2.22158 -4.72458,3.63273 -7.81261,4.20233 -2.47202,0.45598 -6.21118,0.45987 -8.50287,0.009 z"
       id="path23" /></g></svg>
